# Blender v2.70 (sub 0) OBJ File: 'first_model.blend'
# www.blender.org
o Cube.002_Cube
v -0.929570 1.278518 0.433536
v -0.929570 1.278518 -0.433536
v -0.929570 4.029672 0.433536
v -0.929570 4.029672 -0.433536
v -0.929570 1.278518 0.020462
v -0.929570 4.029672 0.020462
v -0.929570 1.278518 0.270629
v -0.929570 4.029672 0.270629
v -0.472206 1.278518 -0.433536
v -0.472206 1.278518 0.020462
v -0.472206 4.029672 0.433536
v -0.472206 4.029672 -0.433536
v -0.472206 4.029672 0.020462
v -0.472206 1.278518 0.433536
v -0.472206 1.278518 0.270629
v -0.472206 4.029672 0.270629
v -0.929570 3.483836 -0.433536
v -0.929570 3.483836 0.433536
v -0.472206 6.178548 0.270629
v -0.472206 4.710183 0.020462
v -0.472206 4.710183 0.270629
v -0.472206 6.178548 -0.509545
v -0.472206 4.710183 -0.509545
v -0.929570 3.483836 0.020462
v -0.929570 3.483836 0.270629
v -0.472206 3.483836 0.433536
v -0.929570 -0.984825 0.020462
v -0.929570 2.957667 -0.433536
v -0.929570 2.957667 0.020462
v -0.929570 2.957667 0.270629
v -0.472206 2.957667 0.433536
v -0.929570 -0.984825 0.270629
v -0.929570 2.957667 0.433536
v -1.745895 2.929962 0.020462
v -1.745895 2.929962 0.270629
v -1.745895 2.403793 0.020462
v -1.745895 2.403793 0.270629
v -1.366728 2.403793 0.020462
v -1.366728 2.403793 0.270629
v -1.366728 2.929962 0.270629
v -1.366728 2.929962 0.020462
v -1.745895 1.359460 0.020462
v -1.745895 1.359460 0.270629
v -1.366728 1.359460 0.020462
v -1.366728 1.359460 0.270629
v -0.472206 -0.984825 0.020462
v -0.472206 -0.984825 0.270629
v 0.929570 1.278518 0.433536
v 0.929570 1.278518 -0.433536
v 0.000000 4.029672 0.020462
v 0.000000 1.278518 0.020462
v 0.929570 4.029672 0.433536
v 0.929570 4.029672 -0.433536
v 0.929570 1.278518 0.020462
v 0.929570 4.029672 0.020462
v 0.000000 4.029672 -0.433536
v 0.000000 1.278518 -0.433536
v 0.000000 4.029672 0.433536
v 0.000000 1.278518 0.433536
v 0.929570 1.278518 0.270629
v 0.929570 4.029672 0.270629
v 0.000000 1.278518 0.270629
v 0.000000 4.029672 0.270629
v 0.472206 1.278518 -0.433536
v 0.472206 1.278518 0.020462
v 0.472206 4.029672 0.433536
v 0.472206 4.029672 -0.433536
v 0.472206 4.029672 0.020462
v 0.472206 1.278518 0.433536
v 0.472206 1.278518 0.270629
v 0.472206 4.029672 0.270629
v 0.929570 3.483836 -0.433536
v 0.000000 6.178548 0.270629
v 0.929570 3.483836 0.433536
v 0.472206 6.178548 0.270629
v 0.472206 4.710183 0.020462
v 0.472206 4.710183 0.270629
v 0.000000 4.710183 0.270629
v 0.000000 4.710183 0.020462
v 0.000000 6.178548 -0.509545
v 0.472206 6.178548 -0.509545
v 0.472206 4.710183 -0.509545
v 0.000000 4.710183 -0.509545
v 0.929570 3.483836 0.020462
v 0.000000 3.483836 -0.433536
v 0.000000 3.483836 0.433536
v 0.929570 3.483836 0.270629
v 0.472206 3.483836 0.433536
v 0.929570 -0.984825 0.020462
v 0.929570 2.957667 -0.433536
v 0.929570 2.957667 0.020462
v 0.000000 2.957667 -0.433536
v 0.000000 2.957667 0.433536
v 0.929570 2.957667 0.270629
v 0.472206 2.957667 0.433536
v 0.929570 -0.984825 0.270629
v 0.929570 2.957667 0.433536
v 1.745895 2.929962 0.020462
v 1.745895 2.929962 0.270629
v 1.745895 2.403793 0.020462
v 1.745895 2.403793 0.270629
v 1.366728 2.403793 0.020462
v 1.366728 2.403793 0.270629
v 1.366728 2.929962 0.270629
v 1.366728 2.929962 0.020462
v 1.745895 1.359460 0.020462
v 1.745895 1.359460 0.270629
v 1.366728 1.359460 0.020462
v 1.366728 1.359460 0.270629
v 0.472206 -0.984825 0.020462
v 0.472206 -0.984825 0.270629
vt 0.000000 0.512132
vt 0.000000 0.294010
vt 0.211739 0.294010
vt 0.622208 0.462567
vt 0.548834 0.462567
vt 0.548834 0.382663
vt 0.887634 0.294010
vt 0.887634 0.000000
vt 0.958702 0.000000
vt 0.693276 0.600786
vt 0.693276 0.382663
vt 0.764344 0.382663
vt 0.622208 0.585270
vt 0.548834 0.585270
vt 0.619902 0.807949
vt 0.619902 0.930652
vt 0.548834 0.930652
vt 0.837718 0.676673
vt 0.837718 0.382663
vt 0.908786 0.382663
vt 0.622208 0.807949
vt 0.548834 0.807949
vt 0.211739 0.512132
vt 0.328414 0.294010
vt 0.328414 0.512132
vt 0.404392 0.294010
vt 0.693276 0.462567
vt 0.622208 0.382663
vt 0.404392 0.728046
vt 0.477766 0.728046
vt 0.477766 0.807949
vt 0.764344 0.600786
vt 0.160872 0.945396
vt 0.160872 0.651386
vt 0.277547 0.651386
vt 0.404392 0.382663
vt 0.477766 0.382663
vt 0.477766 0.605342
vt 0.000000 0.651386
vt 0.000000 0.580482
vt 0.211739 0.580482
vt 0.693276 0.807949
vt 0.585762 0.259960
vt 0.585762 0.382663
vt 0.982160 0.471062
vt 0.982160 0.661804
vt 0.908786 0.661804
vt 1.000000 0.740040
vt 1.000000 1.000000
vt 0.926626 1.000000
vt 0.669818 0.382663
vt 0.982160 0.382663
vt 0.908786 0.471062
vt 0.961009 0.294010
vt 0.961009 0.382408
vt 0.887634 0.382408
vt 0.693276 0.998691
vt 0.619902 0.998691
vt 0.548834 0.605342
vt 0.548834 0.728046
vt 0.693276 0.740040
vt 0.693276 0.669136
vt 0.764344 0.669136
vt 0.814260 0.000000
vt 0.887634 0.382663
vt 0.211739 0.651386
vt 0.328414 0.580482
vt 0.328414 0.651386
vt 0.404392 0.580482
vt 0.764344 0.740040
vt 0.837718 0.669136
vt 0.211739 0.000000
vt 0.328414 0.000000
vt 0.693276 0.875699
vt 0.809951 0.740040
vt 0.404392 0.512132
vt 0.837718 0.600786
vt 0.809951 0.944049
vt 0.809951 0.875699
vt 0.926626 0.875699
vt 0.345475 0.723334
vt 0.404392 0.723334
vt 0.404392 0.791684
vt 0.067928 0.787045
vt 0.126845 0.787045
vt 0.126845 0.855395
vt 0.463309 0.930652
vt 0.404392 0.930652
vt 0.404392 0.807949
vt 0.809951 0.947648
vt 0.693276 0.947648
vt 0.345475 0.791684
vt 0.000000 0.927344
vt 0.000000 0.858994
vt 0.211739 0.508533
vt 0.328414 0.508533
vt 0.489917 0.930652
vt 0.489917 0.807949
vt 0.067928 0.651386
vt 0.126845 0.651386
vt 0.404392 0.927344
vt 0.345475 0.927344
vt 0.926626 0.740040
vt 0.814260 0.357376
vt 0.743192 0.357376
vt 0.814260 0.286472
vt 0.958702 0.294010
vt 0.908786 0.676673
vt 0.585762 0.000000
vt 0.404392 0.000000
vt 0.067928 0.855395
vt 0.743192 0.000000
vt 0.814260 0.218122
vt 0.277547 0.945396
vt 0.404392 0.605342
vt 0.693276 0.585270
vt 0.669818 0.259960
vt 0.814260 0.382663
vt 0.404392 0.651386
vt 0.837718 0.740040
vt 0.926626 0.944049
vt 0.463309 0.807949
vt 0.277547 0.719736
vt 0.669818 0.357376
vt 0.669818 0.286472
vt 0.669818 0.218122
vt 0.669818 0.000000
vn -1.000000 0.000000 0.000000
vn 0.000000 -1.000000 0.000000
vn 0.000000 0.000000 1.000000
vn 0.000000 0.000000 -1.000000
vn 0.000000 1.000000 0.000000
vn 1.000000 0.000000 0.000000
vn 0.784959 -0.619547 0.000000
vn -0.784960 0.619547 0.000000
vn -0.784960 -0.619547 0.000000
vn 0.784960 0.619547 0.000000
vn 0.784960 -0.619547 0.000000
vn -0.784959 0.619547 0.000000
vn -0.784959 -0.619547 0.000000
vn 0.784959 0.619547 0.000000
s off
f 28/1/1 2/2/1 5/3/1
f 15/4/2 62/5/2 59/6/2
f 7/7/3 32/8/3 47/9/3
f 33/10/3 1/11/3 14/12/3
f 10/13/2 51/14/2 62/5/2
f 32/15/2 27/16/2 46/17/2
f 10/18/4 46/19/4 27/20/4
f 9/21/2 57/22/2 51/14/2
f 29/23/1 5/3/1 7/24/1
f 30/25/1 7/24/1 1/26/1
f 7/27/2 15/4/2 14/28/2
f 63/29/5 16/30/5 11/31/5
f 31/32/3 14/12/3 59/19/3
f 15/33/6 47/34/6 46/35/6
f 56/36/5 12/37/5 13/38/5
f 4/39/1 17/40/1 24/41/1
f 2/42/2 9/21/2 10/13/2
f 20/43/1 21/44/1 19/36/1
f 78/45/3 73/46/3 19/47/3
f 20/48/2 23/49/2 83/50/2
f 16/51/1 21/44/1 20/43/1
f 63/52/3 78/45/3 21/53/3
f 13/54/4 20/55/4 79/56/4
f 23/42/4 22/57/4 80/58/4
f 16/30/5 6/59/5 8/60/5
f 3/61/3 18/62/3 26/63/3
f 80/64/5 22/8/5 19/65/5
f 6/66/1 24/41/1 25/67/1
f 8/68/1 25/67/1 18/69/1
f 11/70/3 26/63/3 86/71/3
f 5/3/1 27/72/1 32/73/1
f 17/40/1 28/1/1 29/23/1
f 18/62/3 33/10/3 31/32/3
f 39/74/6 45/61/6 44/75/6
f 25/67/1 30/25/1 33/76/1
f 26/63/3 31/32/3 93/77/3
f 34/78/1 36/79/1 37/80/1
f 40/81/3 35/82/3 37/83/3
f 38/84/4 36/85/4 34/86/4
f 41/87/5 34/88/5 35/89/5
f 29/90/7 30/91/7 39/74/7
f 25/35/3 40/81/3 39/92/3
f 24/93/4 29/94/4 38/84/4
f 24/41/8 41/95/8 40/96/8
f 45/17/2 43/97/2 42/98/2
f 38/84/4 44/99/4 42/100/4
f 37/83/3 43/101/3 45/102/3
f 36/79/1 42/75/1 43/103/1
f 4/104/4 12/105/4 17/106/4
f 54/3/6 49/2/6 90/1/6
f 59/6/2 62/5/2 70/4/2
f 70/107/3 111/9/3 96/8/3
f 69/12/3 48/11/3 97/10/3
f 62/5/2 51/14/2 65/13/2
f 96/15/2 111/22/2 110/17/2
f 54/108/4 89/20/4 110/19/4
f 51/14/2 57/22/2 64/21/2
f 60/24/6 54/3/6 91/23/6
f 48/26/6 60/24/6 94/25/6
f 69/28/2 70/4/2 60/27/2
f 66/31/5 71/30/5 63/29/5
f 59/19/3 69/12/3 95/32/3
f 110/35/1 111/34/1 70/33/1
f 68/38/5 67/37/5 56/36/5
f 84/41/6 72/40/6 53/39/6
f 65/13/2 64/21/2 49/42/2
f 76/43/6 82/109/6 81/110/6
f 75/47/3 73/46/3 78/45/3
f 83/50/2 82/49/2 76/48/2
f 76/43/6 77/44/6 71/51/6
f 77/53/3 78/45/3 63/52/3
f 79/56/4 76/55/4 68/54/4
f 80/58/4 81/57/4 82/42/4
f 71/30/5 61/60/5 68/38/5
f 88/63/3 74/62/3 52/61/3
f 75/65/5 81/8/5 80/64/5
f 87/67/6 84/41/6 55/66/6
f 74/69/6 87/67/6 61/68/6
f 86/71/3 88/63/3 66/70/3
f 96/73/6 89/72/6 54/3/6
f 91/23/6 90/1/6 72/40/6
f 95/32/3 97/10/3 74/62/3
f 108/75/1 109/61/1 103/74/1
f 97/76/6 94/25/6 87/67/6
f 93/77/3 95/32/3 88/63/3
f 101/80/6 100/79/6 98/78/6
f 101/83/3 99/82/3 104/81/3
f 98/86/4 100/85/4 102/84/4
f 99/89/5 98/88/5 105/87/5
f 102/79/9 103/74/9 94/91/9
f 103/92/3 104/81/3 87/35/3
f 84/93/4 105/111/4 102/84/4
f 104/96/10 105/95/10 84/41/10
f 106/98/2 107/97/2 109/17/2
f 106/100/4 108/99/4 102/84/4
f 109/102/3 107/101/3 101/83/3
f 107/103/6 106/75/6 100/79/6
f 49/64/4 64/112/4 90/113/4
f 29/23/1 28/1/1 5/3/1
f 14/28/2 15/4/2 59/6/2
f 15/107/3 7/7/3 47/9/3
f 31/32/3 33/10/3 14/12/3
f 15/4/2 10/13/2 62/5/2
f 47/22/2 32/15/2 46/17/2
f 5/108/4 10/18/4 27/20/4
f 10/13/2 9/21/2 51/14/2
f 30/25/1 29/23/1 7/24/1
f 33/76/1 30/25/1 1/26/1
f 1/11/2 7/27/2 14/28/2
f 58/89/5 63/29/5 11/31/5
f 93/77/3 31/32/3 59/19/3
f 10/114/6 15/33/6 46/35/6
f 50/115/5 56/36/5 13/38/5
f 6/66/1 4/39/1 24/41/1
f 5/116/2 2/42/2 10/13/2
f 79/103/2 20/48/2 83/50/2
f 22/110/1 20/43/1 19/36/1
f 21/53/3 78/45/3 19/47/3
f 22/110/1 23/109/1 20/43/1
f 13/117/1 16/51/1 20/43/1
f 16/20/3 63/52/3 21/53/3
f 50/7/4 13/54/4 79/56/4
f 83/15/4 23/42/4 80/58/4
f 3/22/5 11/31/5 16/30/5
f 12/37/5 6/59/5 13/38/5
f 12/37/5 4/6/5 6/59/5
f 8/60/5 3/22/5 16/30/5
f 73/118/5 80/64/5 19/65/5
f 11/70/3 3/61/3 26/63/3
f 6/59/5 16/30/5 13/38/5
f 8/68/1 6/66/1 25/67/1
f 3/119/1 8/68/1 18/69/1
f 58/120/3 11/70/3 86/71/3
f 7/24/1 5/3/1 32/73/1
f 24/41/1 17/40/1 29/23/1
f 26/63/3 18/62/3 31/32/3
f 38/79/6 39/74/6 44/75/6
f 18/69/1 25/67/1 33/76/1
f 86/71/3 26/63/3 93/77/3
f 35/121/1 34/78/1 37/80/1
f 39/92/3 40/81/3 37/83/3
f 41/111/4 38/84/4 34/86/4
f 40/122/5 41/87/5 35/89/5
f 38/79/11 29/90/11 39/74/11
f 30/123/3 25/35/3 39/92/3
f 41/111/4 24/93/4 38/84/4
f 25/67/12 24/41/12 40/96/12
f 44/22/2 45/17/2 42/98/2
f 36/85/4 38/84/4 42/100/4
f 39/92/3 37/83/3 45/102/3
f 37/80/1 36/79/1 43/103/1
f 9/112/4 2/64/4 28/113/4
f 69/28/2 59/6/2 70/4/2
f 91/23/6 54/3/6 90/1/6
f 56/124/4 85/125/4 12/105/4
f 92/126/4 9/112/4 28/113/4
f 92/126/4 57/127/4 9/112/4
f 12/105/4 85/125/4 17/106/4
f 85/125/4 28/113/4 17/106/4
f 85/125/4 92/126/4 28/113/4
f 60/7/3 70/107/3 96/8/3
f 95/32/3 69/12/3 97/10/3
f 70/4/2 62/5/2 65/13/2
f 89/16/2 96/15/2 110/17/2
f 65/18/4 54/108/4 110/19/4
f 65/13/2 51/14/2 64/21/2
f 94/25/6 60/24/6 91/23/6
f 97/76/6 48/26/6 94/25/6
f 48/11/2 69/28/2 60/27/2
f 58/89/5 66/31/5 63/29/5
f 93/77/3 59/19/3 95/32/3
f 65/114/1 110/35/1 70/33/1
f 50/115/5 68/38/5 56/36/5
f 55/66/6 84/41/6 53/39/6
f 54/116/2 65/13/2 49/42/2
f 79/103/2 83/50/2 76/48/2
f 75/36/6 76/43/6 81/110/6
f 77/53/3 75/47/3 78/45/3
f 75/36/6 77/44/6 76/43/6
f 68/117/6 76/43/6 71/51/6
f 71/20/3 77/53/3 63/52/3
f 50/7/4 79/56/4 68/54/4
f 83/15/4 80/58/4 82/42/4
f 71/30/5 66/31/5 52/22/5
f 55/59/5 53/6/5 67/37/5
f 66/70/3 88/63/3 52/61/3
f 71/30/5 52/22/5 61/60/5
f 67/37/5 68/38/5 55/59/5
f 68/38/5 61/60/5 55/59/5
f 73/118/5 75/65/5 80/64/5
f 61/68/6 87/67/6 55/66/6
f 52/119/6 74/69/6 61/68/6
f 58/120/3 86/71/3 66/70/3
f 60/24/6 96/73/6 54/3/6
f 84/41/6 91/23/6 72/40/6
f 88/63/3 95/32/3 74/62/3
f 102/79/1 108/75/1 103/74/1
f 74/69/6 97/76/6 87/67/6
f 86/71/3 93/77/3 88/63/3
f 99/121/6 101/80/6 98/78/6
f 103/92/3 101/83/3 104/81/3
f 105/111/4 98/86/4 102/84/4
f 104/122/5 99/89/5 105/87/5
f 91/90/13 102/79/13 94/91/13
f 94/123/3 103/92/3 87/35/3
f 91/94/4 84/93/4 102/84/4
f 87/67/14 104/96/14 84/41/14
f 108/22/2 106/98/2 109/17/2
f 100/85/4 106/100/4 102/84/4
f 103/92/3 109/102/3 101/83/3
f 101/80/6 107/103/6 100/79/6
f 85/125/4 56/124/4 67/105/4
f 67/105/4 53/104/4 72/106/4
f 57/127/4 92/126/4 64/112/4
f 67/105/4 72/106/4 85/125/4
f 72/106/4 92/126/4 85/125/4
f 64/112/4 92/126/4 90/113/4
f 92/126/4 72/106/4 90/113/4
